# xmcd
#
# Track frame offsets: 
#        150
#        16370
#        30361
#        53415
#
# Disc length: 933 seconds
#
# Revision: 0
# Processed by: cddbd v1.5.2PL0 Copyright (c) Steve Scherf et al.
# Submitted via: ExactAudioCopyFreeDBPlugin 1.0
#
DISCID=1f03a304
DTITLE=The Budrows - No Bad Whiskey EP
DYEAR=2015
DGENRE=
TTITLE0=No Bad Whiskey
TTITLE1=Devil's On My Side
TTITLE2=Prove Me Wrong
TTITLE3=Never Comin' Back
EXTD=
EXTT0=
EXTT1=
EXTT2=
EXTT3=
PLAYORDER=
